{
  "accessors": [
    {
      "bufferView": 1,
      "componentType": 5126,
      "count": 7701,
      "max": [
        154.3624267578125,
        153.1212158203125,
        5.4855098724365234
      ],
      "min": [
        -153.00320434570312,
        -153.52732849121094,
        -27.133039474487305
      ],
      "type": "VEC3"
    },
    {
      "bufferView": 1,
      "byteOffset": 92412,
      "componentType": 5126,
      "count": 7701,
      "max": [
        0.99848014116287231,
        0.99978643655776978,
        0.99972367286682129
      ],
      "min": [
        -0.99909502267837524,
        -0.99989569187164307,
        -0.99999082088470459
      ],
      "type": "VEC3"
    },
    {
      "bufferView": 0,
      "componentType": 5125,
      "count": 9039,
      "max": [
        7700
      ],
      "min": [
        0
      ],
      "type": "SCALAR"
    },
    {
      "bufferView": 1,
      "byteOffset": 184824,
      "componentType": 5126,
      "count": 985,
      "max": [
        58.405708312988281,
        62.167819976806641,
        -12.67743968963623
      ],
      "min": [
        -54.623611450195312,
        -64.184967041015625,
        -141.71369934082031
      ],
      "type": "VEC3"
    },
    {
      "bufferView": 1,
      "byteOffset": 196644,
      "componentType": 5126,
      "count": 985,
      "max": [
        0.97531372308731079,
        0.94994920492172241,
        -0.12552964687347412
      ],
      "min": [
        -0.95107001066207886,
        -0.97328609228134155,
        -0.99756592512130737
      ],
      "type": "VEC3"
    },
    {
      "bufferView": 0,
      "byteOffset": 36156,
      "componentType": 5125,
      "count": 1137,
      "max": [
        984
      ],
      "min": [
        0
      ],
      "type": "SCALAR"
    },
    {
      "bufferView": 1,
      "byteOffset": 208464,
      "componentType": 5126,
      "count": 10232,
      "max": [
        154.3624267578125,
        150.87149047851562,
        6.389430046081543
      ],
      "min": [
        -152.73506164550781,
        -151.781494140625,
        -125.40834045410156
      ],
      "type": "VEC3"
    },
    {
      "bufferView": 1,
      "byteOffset": 331248,
      "componentType": 5126,
      "count": 10232,
      "max": [
        0.9984775185585022,
        0.99896639585494995,
        0.99999582767486572
      ],
      "min": [
        -0.9997597336769104,
        -0.99993628263473511,
        -0.99786907434463501
      ],
      "type": "VEC3"
    },
    {
      "bufferView": 0,
      "byteOffset": 40704,
      "componentType": 5125,
      "count": 11886,
      "max": [
        10231
      ],
      "min": [
        0
      ],
      "type": "SCALAR"
    },
    {
      "bufferView": 1,
      "byteOffset": 454032,
      "componentType": 5126,
      "count": 473,
      "max": [
        71.745819091796875,
        68.06878662109375,
        -12.620059967041016
      ],
      "min": [
        -67.861419677734375,
        -74.462982177734375,
        -34.700141906738281
      ],
      "type": "VEC3"
    },
    {
      "bufferView": 1,
      "byteOffset": 459708,
      "componentType": 5126,
      "count": 473,
      "max": [
        0.97593080997467041,
        0.88503903150558472,
        0.29786893725395203
      ],
      "min": [
        -0.9634549617767334,
        -0.75659948587417603,
        -0.99984228610992432
      ],
      "type": "VEC3"
    },
    {
      "bufferView": 0,
      "byteOffset": 88248,
      "componentType": 5125,
      "count": 567,
      "max": [
        472
      ],
      "min": [
        0
      ],
      "type": "SCALAR"
    },
    {
      "bufferView": 1,
      "byteOffset": 465384,
      "componentType": 5126,
      "count": 709,
      "max": [
        86.492416381835938,
        82.85906982421875,
        -11.464570045471191
      ],
      "min": [
        -76.877403259277344,
        -85.681320190429688,
        -25.934730529785156
      ],
      "type": "VEC3"
    },
    {
      "bufferView": 1,
      "byteOffset": 473892,
      "componentType": 5126,
      "count": 709,
      "max": [
        0.79513955116271973,
        0.9350351095199585,
        0.95820444822311401
      ],
      "min": [
        -0.79289239645004272,
        -0.89183002710342407,
        -0.99987465143203735
      ],
      "type": "VEC3"
    },
    {
      "bufferView": 0,
      "byteOffset": 90516,
      "componentType": 5125,
      "count": 819,
      "max": [
        708
      ],
      "min": [
        0
      ],
      "type": "SCALAR"
    },
    {
      "bufferView": 1,
      "byteOffset": 482400,
      "componentType": 5126,
      "count": 1038,
      "max": [
        101.89154052734375,
        98.800521850585938,
        -11.863129615783691
      ],
      "min": [
        -97.230926513671875,
        -99.933319091796875,
        -27.133039474487305
      ],
      "type": "VEC3"
    },
    {
      "bufferView": 1,
      "byteOffset": 494856,
      "componentType": 5126,
      "count": 1038,
      "max": [
        0.69332653284072876,
        0.83421719074249268,
        0.9575197696685791
      ],
      "min": [
        -0.91982769966125488,
        -0.86543989181518555,
        -0.9999769926071167
      ],
      "type": "VEC3"
    },
    {
      "bufferView": 0,
      "byteOffset": 93792,
      "componentType": 5125,
      "count": 1188,
      "max": [
        1037
      ],
      "min": [
        0
      ],
      "type": "SCALAR"
    },
    {
      "bufferView": 1,
      "byteOffset": 507312,
      "componentType": 5126,
      "count": 136,
      "max": [
        12.46304988861084,
        -3.5195701122283936,
        -14.477999687194824
      ],
      "min": [
        -9.5611295700073242,
        -51.993839263916016,
        -122.97267150878906
      ],
      "type": "VEC3"
    },
    {
      "bufferView": 1,
      "byteOffset": 508944,
      "componentType": 5126,
      "count": 136,
      "max": [
        0.99980676174163818,
        0.89329743385314941,
        0.7017408013343811
      ],
      "min": [
        -0.99933725595474243,
        -0.89329743385314941,
        -0.7017408013343811
      ],
      "type": "VEC3"
    },
    {
      "bufferView": 0,
      "byteOffset": 98544,
      "componentType": 5125,
      "count": 180,
      "max": [
        135
      ],
      "min": [
        0
      ],
      "type": "SCALAR"
    }
  ],
  "asset": {
    "extras": {
      "author": "Eduardo G. Pedroso (https://sketchfab.com/ed.pedroso)",
      "license": "CC-BY-4.0 (http://creativecommons.org/licenses/by/4.0/)",
      "source": "https://sketchfab.com/3d-models/science-fair-volcano-469e122a91e3447abbb2dbe80ad46151",
      "title": "Science Fair Volcano"
    },
    "generator": "Sketchfab-6.22.0",
    "version": "2.0"
  },
  "bufferViews": [
    {
      "buffer": 0,
      "byteLength": 99264,
      "byteOffset": 0,
      "name": "floatBufferViews",
      "target": 34963
    },
    {
      "buffer": 0,
      "byteLength": 510576,
      "byteOffset": 99264,
      "byteStride": 12,
      "name": "floatBufferViews",
      "target": 34962
    }
  ],
  "buffers": [
    {
      "byteLength": 609840,
      "uri": "scene.bin"
    }
  ],
  "materials": [
    {
      "doubleSided": true,
      "name": "Lava",
      "pbrMetallicRoughness": {
        "baseColorFactor": [
          1,
          0.11566779990000001,
          0.0003424751,
          1
        ],
        "metallicFactor": 0,
        "roughnessFactor": 0.59999999999999998
      }
    },
    {
      "doubleSided": true,
      "name": "Ocean",
      "pbrMetallicRoughness": {
        "baseColorFactor": [
          0.12796130780000001,
          0.4186889231,
          0.80000007149999997,
          1
        ],
        "metallicFactor": 0,
        "roughnessFactor": 0.59999999999999998
      }
    },
    {
      "doubleSided": true,
      "name": "Stone",
      "pbrMetallicRoughness": {
        "baseColorFactor": [
          0.125,
          0.125,
          0.125,
          1
        ],
        "metallicFactor": 0,
        "roughnessFactor": 0.59999999999999998
      }
    },
    {
      "doubleSided": true,
      "name": "Terra",
      "pbrMetallicRoughness": {
        "baseColorFactor": [
          0.25276952930000002,
          0.13115280330000001,
          0.045627160600000001,
          1
        ],
        "metallicFactor": 0,
        "roughnessFactor": 0.59999999999999998
      }
    },
    {
      "doubleSided": true,
      "name": "Sand",
      "pbrMetallicRoughness": {
        "baseColorFactor": [
          0.36926983470000002,
          0.32490458030000002,
          0.015442707199999999,
          1
        ],
        "metallicFactor": 0,
        "roughnessFactor": 0.59999999999999998
      }
    },
    {
      "doubleSided": true,
      "name": "Material",
      "pbrMetallicRoughness": {
        "baseColorFactor": [
          0.80149452669999999,
          0.66672957919999998,
          0.21937088060000001,
          1
        ],
        "metallicFactor": 0,
        "roughnessFactor": 0.59999999999999998
      }
    }
  ],
  "meshes": [
    {
      "name": "Grid",
      "primitives": [
        {
          "attributes": {
            "NORMAL": 1,
            "POSITION": 0
          },
          "indices": 2,
          "material": 1,
          "mode": 4
        }
      ]
    },
    {
      "name": "Grid",
      "primitives": [
        {
          "attributes": {
            "NORMAL": 4,
            "POSITION": 3
          },
          "indices": 5,
          "material": 2,
          "mode": 4
        }
      ]
    },
    {
      "name": "Grid",
      "primitives": [
        {
          "attributes": {
            "NORMAL": 7,
            "POSITION": 6
          },
          "indices": 8,
          "material": 0,
          "mode": 4
        }
      ]
    },
    {
      "name": "Grid",
      "primitives": [
        {
          "attributes": {
            "NORMAL": 10,
            "POSITION": 9
          },
          "indices": 11,
          "material": 3,
          "mode": 4
        }
      ]
    },
    {
      "name": "Grid",
      "primitives": [
        {
          "attributes": {
            "NORMAL": 13,
            "POSITION": 12
          },
          "indices": 14,
          "material": 4,
          "mode": 4
        }
      ]
    },
    {
      "name": "Grid",
      "primitives": [
        {
          "attributes": {
            "NORMAL": 16,
            "POSITION": 15
          },
          "indices": 17,
          "material": 5,
          "mode": 4
        }
      ]
    },
    {
      "name": "Grid.002",
      "primitives": [
        {
          "attributes": {
            "NORMAL": 19,
            "POSITION": 18
          },
          "indices": 20,
          "material": 0,
          "mode": 4
        }
      ]
    }
  ],
  "nodes": [
    {
      "children": [
        1
      ],
      "name": "RootNode (gltf orientation matrix)",
      "rotation": [
        -0.70710678118654746,
        -0,
        -0,
        0.70710678118654757
      ]
    },
    {
      "children": [
        2
      ],
      "name": "RootNode (model correction matrix)"
    },
    {
      "children": [
        3,
        10,
        12,
        14
      ],
      "name": "Root"
    },
    {
      "children": [
        4,
        5,
        6,
        7,
        8,
        9
      ],
      "matrix": [
        -1,
        0,
        -0,
        0,
        -0,
        1,
        0,
        0,
        0,
        0,
        -0.46204000000000001,
        0,
        118.10035999999999,
        -0,
        20.692519999999998,
        1
      ],
      "name": "Grid"
    },
    {
      "mesh": 0,
      "name": "Grid"
    },
    {
      "mesh": 1,
      "name": "Grid"
    },
    {
      "mesh": 2,
      "name": "Grid"
    },
    {
      "mesh": 3,
      "name": "Grid"
    },
    {
      "mesh": 4,
      "name": "Grid"
    },
    {
      "mesh": 5,
      "name": "Grid"
    },
    {
      "children": [
        11
      ],
      "matrix": [
        -0.10886000000000001,
        -0.83764000000000016,
        0.53525999999999996,
        0,
        -0.86828000000000005,
        -0.18204000000000004,
        -0.46147000000000005,
        0,
        0.48399000000000003,
        -0.51499000000000006,
        -0.70749000000000006,
        0,
        -73.700900000000004,
        103.65724,
        -36.382279999999994,
        1
      ],
      "name": "Sun"
    },
    {
      "name": "Sun"
    },
    {
      "children": [
        13
      ],
      "matrix": [
        -1,
        0,
        -0,
        0,
        -0,
        1,
        0,
        0,
        0,
        0,
        -0.46204000000000001,
        0,
        118.10035999999999,
        -0,
        23.443639999999995,
        1
      ],
      "name": "Grid.002"
    },
    {
      "mesh": 6,
      "name": "Grid.002"
    },
    {
      "children": [
        15
      ],
      "matrix": [
        -0.42567000000000005,
        -0.83764000000000016,
        -0.34228000000000008,
        0,
        0.80837000000000003,
        -0.18204000000000004,
        -0.55983000000000005,
        0,
        0.40662999999999999,
        -0.51499000000000006,
        0.75461000000000011,
        0,
        -73.700900000000004,
        103.65724,
        157.48901000000001,
        1
      ],
      "name": "Sun.001"
    },
    {
      "name": "Sun.001"
    }
  ],
  "scene": 0,
  "scenes": [
    {
      "name": "OSG_Scene",
      "nodes": [
        0
      ]
    }
  ]
}

